<?xml version="1.0" encoding="UTF-8"?>
<!DOCTYPE svg PUBLIC "-//W3C//DTD SVG 1.1//EN" "http://www.w3.org/Graphics/SVG/1.1/DTD/svg11.dtd">
<svg xmlns="http://www.w3.org/2000/svg" version="1.1" width="2190px" height="1920px" style="shape-rendering:geometricPrecision; text-rendering:geometricPrecision; image-rendering:optimizeQuality; fill-rule:evenodd; clip-rule:evenodd" xmlns:xlink="http://www.w3.org/1999/xlink">
<g><path style="opacity:1" fill="#000000" d="M 1378.5,362.5 C 1380.54,364.177 1382.54,365.844 1384.5,367.5C 1394.94,377.215 1405.94,386.215 1417.5,394.5C 1425.13,400.129 1432.46,406.129 1439.5,412.5C 1440.91,414.914 1442.91,416.581 1445.5,417.5C 1448.61,421.215 1452.27,424.215 1456.5,426.5C 1459.43,427.757 1461.76,429.757 1463.5,432.5C 1468.25,437.584 1473.58,441.917 1479.5,445.5C 1488,452.5 1496.67,459.333 1505.5,466C 1507.16,467.444 1507.82,469.278 1507.5,471.5C 1509.7,486.54 1513.04,501.206 1517.5,515.5C 1528.91,566.222 1540.58,616.889 1552.5,667.5C 1552.58,672.477 1553.58,677.143 1555.5,681.5C 1555.29,684.495 1555.96,687.162 1557.5,689.5C 1559.67,696.694 1561.34,704.027 1562.5,711.5C 1562.29,714.495 1562.96,717.162 1564.5,719.5C 1565.84,723.325 1567.01,727.325 1568,731.5C 1573.85,745.188 1579.68,758.855 1585.5,772.5C 1591.66,786.812 1598.32,800.812 1605.5,814.5C 1606.22,814.918 1606.72,815.584 1607,816.5C 1606.95,830.919 1604.78,844.919 1600.5,858.5C 1596.67,872.022 1593,885.689 1589.5,899.5C 1583.66,918.036 1576.66,936.036 1568.5,953.5C 1565.38,958.081 1563.04,963.081 1561.5,968.5C 1560.67,971.485 1559.34,974.151 1557.5,976.5C 1553,983.505 1549,990.839 1545.5,998.5C 1538.9,1010.71 1531.57,1022.38 1523.5,1033.5C 1518.12,1040.22 1513.12,1047.22 1508.5,1054.5C 1504.21,1060.79 1499.54,1066.79 1494.5,1072.5C 1490.69,1076.12 1487.36,1080.12 1484.5,1084.5C 1479.36,1089.45 1474.7,1094.78 1470.5,1100.5C 1468.5,1103.17 1466.17,1105.5 1463.5,1107.5C 1451.83,1118.5 1440.5,1129.83 1429.5,1141.5C 1423.4,1148.94 1416.4,1155.27 1408.5,1160.5C 1401.21,1164.79 1395.21,1170.45 1390.5,1177.5C 1380.41,1194.67 1370.08,1211.67 1359.5,1228.5C 1353.41,1237 1348.08,1246 1343.5,1255.5C 1338.74,1264.03 1333.74,1272.37 1328.5,1280.5C 1325.08,1284.32 1322.42,1288.66 1320.5,1293.5C 1314.69,1304.44 1308.36,1315.11 1301.5,1325.5C 1302.63,1326.62 1303.3,1327.96 1303.5,1329.5C 1306.67,1335.84 1310.33,1341.84 1314.5,1347.5C 1327.62,1366.29 1339.95,1385.63 1351.5,1405.5C 1353.09,1409.68 1355.42,1413.35 1358.5,1416.5C 1366.1,1428.77 1374.1,1440.77 1382.5,1452.5C 1384.91,1454.89 1387.58,1457.05 1390.5,1459C 1396.09,1460.81 1401.75,1462.31 1407.5,1463.5C 1408.42,1463.46 1409.08,1463.12 1409.5,1462.5C 1445.97,1472.27 1480.64,1486.44 1513.5,1505C 1515.04,1506.11 1515.7,1507.61 1515.5,1509.5C 1384.5,1510.16 1253.83,1509.5 1123.5,1507.5C 1129.19,1504.32 1134.52,1500.66 1139.5,1496.5C 1155.55,1486.31 1172.55,1477.98 1190.5,1471.5C 1197.7,1469.77 1204.7,1467.43 1211.5,1464.5C 1203.62,1454.06 1195.29,1444.06 1186.5,1434.5C 1184.2,1431.86 1181.86,1429.19 1179.5,1426.5C 1169.87,1414.2 1159.87,1402.2 1149.5,1390.5C 1146.04,1387.59 1143.04,1384.25 1140.5,1380.5C 1132.24,1369.24 1123.24,1358.57 1113.5,1348.5C 1108.49,1343.49 1103.82,1338.15 1099.5,1332.5C 1093.91,1324.57 1087.57,1317.24 1080.5,1310.5C 1076.49,1306.49 1072.82,1302.15 1069.5,1297.5C 1069.59,1296.5 1069.25,1295.67 1068.5,1295C 1040.18,1295.45 1011.85,1296.12 983.5,1297C 980.305,1297.18 977.305,1297.68 974.5,1298.5C 970.743,1304.35 966.743,1310.02 962.5,1315.5C 954.738,1324.26 947.738,1333.6 941.5,1343.5C 938.406,1348.02 935.073,1352.36 931.5,1356.5C 928.444,1358.95 926.111,1361.95 924.5,1365.5C 917.412,1372.92 911.079,1380.92 905.5,1389.5C 901.582,1395.75 896.915,1401.42 891.5,1406.5C 889.413,1407.58 888.08,1409.25 887.5,1411.5C 887.5,1412.17 887.167,1412.5 886.5,1412.5C 883.427,1414.57 881.094,1417.24 879.5,1420.5C 869.13,1433.2 857.463,1444.54 844.5,1454.5C 841.911,1455.42 839.911,1457.09 838.5,1459.5C 838.5,1460.17 838.167,1460.5 837.5,1460.5C 832.617,1463.11 828.284,1466.44 824.5,1470.5C 821.792,1473.21 818.792,1475.54 815.5,1477.5C 802.322,1485.59 789.322,1493.92 776.5,1502.5C 771.984,1505.93 766.984,1508.59 761.5,1510.5C 739.172,1521.49 716.505,1531.49 693.5,1540.5C 692.791,1541.4 691.791,1541.74 690.5,1541.5C 682.216,1543.59 674.216,1546.26 666.5,1549.5C 661.16,1551.92 655.493,1553.59 649.5,1554.5C 616.096,1563.31 582.429,1570.98 548.5,1577.5C 547.167,1576.83 547.167,1576.17 548.5,1575.5C 551.933,1572.4 554.6,1568.73 556.5,1564.5C 568.453,1547.21 580.787,1530.21 593.5,1513.5C 600.547,1504.45 607.214,1495.12 613.5,1485.5C 619.179,1477.46 624.846,1469.46 630.5,1461.5C 632.9,1459.7 634.567,1457.37 635.5,1454.5C 637.9,1452.7 639.567,1450.37 640.5,1447.5C 643.933,1444.4 646.6,1440.73 648.5,1436.5C 659.066,1420.27 670.399,1404.6 682.5,1389.5C 686.214,1385.12 689.547,1380.45 692.5,1375.5C 698.481,1366.86 704.814,1358.53 711.5,1350.5C 712.972,1348.87 714.638,1347.37 716.5,1346C 731.834,1339.33 746.834,1332.16 761.5,1324.5C 766.251,1323.29 770.584,1321.29 774.5,1318.5C 780.401,1314.72 786.734,1311.72 793.5,1309.5C 813.558,1300.97 833.224,1291.64 852.5,1281.5C 857.311,1278.93 862.311,1276.6 867.5,1274.5C 872.919,1272.96 877.919,1270.62 882.5,1267.5C 900.598,1259.95 918.265,1251.62 935.5,1242.5C 939.582,1241.62 943.249,1239.96 946.5,1237.5C 948.033,1235.75 950.033,1234.75 952.5,1234.5C 957.919,1232.96 962.919,1230.62 967.5,1227.5C 970.972,1225.26 974.638,1223.26 978.5,1221.5C 978.56,1222.04 978.893,1222.38 979.5,1222.5C 992.047,1216.73 1004.38,1210.73 1016.5,1204.5C 1016.84,1203.66 1017.51,1203.33 1018.5,1203.5C 1021.91,1202.96 1024.91,1201.62 1027.5,1199.5C 1029.85,1197.66 1032.52,1196.33 1035.5,1195.5C 1039.58,1194.62 1043.25,1192.96 1046.5,1190.5C 1049.84,1188.27 1053.5,1186.6 1057.5,1185.5C 1073.15,1178.68 1088.48,1171.34 1103.5,1163.5C 1104.51,1162.33 1105.85,1161.66 1107.5,1161.5C 1112.25,1160.29 1116.58,1158.29 1120.5,1155.5C 1121.51,1154.33 1122.85,1153.66 1124.5,1153.5C 1128.58,1152.62 1132.25,1150.96 1135.5,1148.5C 1138.09,1146.41 1141.09,1145.07 1144.5,1144.5C 1158.15,1138.68 1171.48,1132.34 1184.5,1125.5C 1189.52,1122.33 1194.85,1119.66 1200.5,1117.5C 1203.33,1116.92 1205.66,1115.59 1207.5,1113.5C 1210.33,1112.92 1212.66,1111.59 1214.5,1109.5C 1217.68,1106.74 1221.34,1104.74 1225.5,1103.5C 1238.38,1095.28 1250.38,1085.95 1261.5,1075.5C 1262.83,1073.5 1264.5,1071.83 1266.5,1070.5C 1271.74,1066.77 1276.57,1062.43 1281,1057.5C 1288.05,1049.29 1294.88,1040.96 1301.5,1032.5C 1308.5,1021.83 1315.5,1011.16 1322.5,1000.5C 1324.59,998.664 1325.92,996.331 1326.5,993.5C 1332.48,984.533 1337.15,974.867 1340.5,964.5C 1350.93,939.437 1357.93,913.437 1361.5,886.5C 1363.35,880.216 1363.68,873.882 1362.5,867.5C 1362.21,865.265 1362.54,863.265 1363.5,861.5C 1364.75,851.864 1364.75,840.864 1363.5,828.5C 1368.95,830.269 1373.28,833.603 1376.5,838.5C 1387.14,848.806 1397.81,859.139 1408.5,869.5C 1410.17,870.5 1411.5,871.833 1412.5,873.5C 1413.76,876.427 1415.76,878.761 1418.5,880.5C 1422.13,883.629 1425.63,886.963 1429,890.5C 1434.76,897.714 1440.26,905.047 1445.5,912.5C 1446.08,914.749 1447.41,916.415 1449.5,917.5C 1455.19,923.695 1460.35,930.362 1465,937.5C 1464.18,933.801 1463.02,930.134 1461.5,926.5C 1459.63,919.764 1456.96,913.43 1453.5,907.5C 1444.18,887.124 1433.85,867.124 1422.5,847.5C 1417,836.679 1410.34,826.679 1402.5,817.5C 1395.48,809.143 1388.81,800.476 1382.5,791.5C 1378.16,785.491 1373.16,780.157 1367.5,775.5C 1363.5,772.335 1360,768.668 1357,764.5C 1352.19,738.925 1344.69,714.258 1334.5,690.5C 1333.27,685.718 1331.27,681.385 1328.5,677.5C 1325.13,667.749 1320.46,658.749 1314.5,650.5C 1310,644.173 1306,637.506 1302.5,630.5C 1298.82,623.125 1294.15,616.459 1288.5,610.5C 1276.53,595.017 1264.7,579.351 1253,563.5C 1252.33,561.833 1252.33,560.167 1253,558.5C 1254.29,557.209 1255.46,557.209 1256.5,558.5C 1294.09,565.352 1330.42,559.519 1365.5,541C 1367.75,539.723 1369.75,538.223 1371.5,536.5C 1375.79,533.015 1380.46,530.015 1385.5,527.5C 1389.71,525.469 1393.54,522.802 1397,519.5C 1403.45,522.64 1409.95,525.64 1416.5,528.5C 1427.37,533.096 1437.04,539.429 1445.5,547.5C 1446.58,549.587 1448.25,550.92 1450.5,551.5C 1451.9,554.315 1453.9,555.648 1456.5,555.5C 1454.86,550.895 1452.86,546.562 1450.5,542.5C 1449.6,538.111 1447.93,534.111 1445.5,530.5C 1436.51,511.855 1425.51,494.522 1412.5,478.5C 1412.63,477.761 1412.46,477.094 1412,476.5C 1405.91,469.904 1399.41,463.904 1392.5,458.5C 1385.49,453.16 1378.49,447.826 1371.5,442.5C 1368.84,439.498 1365.51,437.498 1361.5,436.5C 1355.24,434.367 1349.24,431.701 1343.5,428.5C 1339.63,426.371 1335.47,424.704 1331,423.5C 1330.24,423.57 1329.74,423.903 1329.5,424.5C 1328.21,424.737 1327.21,424.404 1326.5,423.5C 1327.24,423.631 1327.91,423.464 1328.5,423C 1324.77,421.292 1321.1,420.792 1317.5,421.5C 1316.21,421.737 1315.21,421.404 1314.5,420.5C 1282.97,413.91 1251.97,418.91 1221.5,435.5C 1215.76,439.226 1209.76,442.56 1203.5,445.5C 1194.98,450.017 1187.32,455.683 1180.5,462.5C 1179.83,463.833 1179.17,463.833 1178.5,462.5C 1174.52,456.525 1170.19,450.858 1165.5,445.5C 1155.2,432.927 1145.37,419.927 1136,406.5C 1135.33,405.5 1135.33,404.5 1136,403.5C 1138.4,401.585 1140.9,399.919 1143.5,398.5C 1154.53,390.984 1165.2,382.984 1175.5,374.5C 1180.45,370.352 1185.78,366.686 1191.5,363.5C 1195.26,361.587 1198.93,359.421 1202.5,357C 1222.24,355.251 1240.57,353.084 1257.5,350.5C 1261.99,349.578 1266.66,348.911 1271.5,348.5C 1272.96,349.16 1274.63,349.493 1276.5,349.5C 1302.13,346.537 1327.79,344.37 1353.5,343C 1361.89,349.517 1370.23,356.017 1378.5,362.5 Z M 1269.5,1165.5 C 1263.21,1185.74 1257.21,1206.07 1251.5,1226.5C 1250.08,1228.51 1249.41,1230.85 1249.5,1233.5C 1248.08,1235.51 1247.41,1237.85 1247.5,1240.5C 1246.08,1242.51 1245.41,1244.85 1245.5,1247.5C 1243.72,1250.5 1242.72,1253.84 1242.5,1257.5C 1235.67,1279.99 1229.01,1302.66 1222.5,1325.5C 1227.75,1334.41 1233.75,1342.74 1240.5,1350.5C 1245.53,1359.22 1251.53,1367.22 1258.5,1374.5C 1262.79,1380.79 1267.46,1386.79 1272.5,1392.5C 1277.35,1401.35 1283.35,1409.35 1290.5,1416.5C 1292.11,1420.05 1294.44,1423.05 1297.5,1425.5C 1302.79,1433.45 1308.45,1441.12 1314.5,1448.5C 1316.53,1452.71 1319.2,1456.54 1322.5,1460C 1315.55,1459.66 1308.55,1459.49 1301.5,1459.5C 1298.71,1458.52 1295.71,1458.19 1292.5,1458.5C 1285.14,1458.44 1277.81,1457.94 1270.5,1457C 1267.64,1453.31 1264.64,1449.81 1261.5,1446.5C 1257.52,1439.87 1253.19,1433.54 1248.5,1427.5C 1243.66,1419.15 1238.33,1411.15 1232.5,1403.5C 1219.73,1384.29 1206.73,1365.29 1193.5,1346.5C 1189.34,1338.86 1184.68,1331.52 1179.5,1324.5C 1182.42,1320.33 1185.08,1316 1187.5,1311.5C 1194.69,1299.12 1201.36,1286.46 1207.5,1273.5C 1212.32,1265.86 1216.66,1257.86 1220.5,1249.5C 1226.43,1241.98 1231.1,1233.65 1234.5,1224.5C 1235.34,1224.16 1235.67,1223.49 1235.5,1222.5C 1237.59,1220.66 1238.92,1218.33 1239.5,1215.5C 1243.67,1209.16 1247.34,1202.5 1250.5,1195.5C 1252.59,1193.66 1253.92,1191.33 1254.5,1188.5C 1256.75,1185 1258.75,1181.33 1260.5,1177.5C 1263.53,1173.94 1266.03,1169.94 1268,1165.5C 1268.69,1164.26 1269.19,1164.26 1269.5,1165.5 Z"/></g>
<g><path style="opacity:1" fill="#202228" d="M 1378.5,362.5 C 1370.23,356.017 1361.89,349.517 1353.5,343C 1327.79,344.37 1302.13,346.537 1276.5,349.5C 1274.63,349.493 1272.96,349.16 1271.5,348.5C 1294.17,346.484 1316.84,344.317 1339.5,342C 1344.5,341.333 1349.5,341.333 1354.5,342C 1363.28,347.949 1371.28,354.782 1378.5,362.5 Z"/></g>
<g><path style="opacity:1" fill="#16161f" d="M 1257.5,350.5 C 1240.57,353.084 1222.24,355.251 1202.5,357C 1198.93,359.421 1195.26,361.587 1191.5,363.5C 1194.37,360.479 1197.7,357.979 1201.5,356C 1220.1,353.44 1238.77,351.607 1257.5,350.5 Z"/></g>
<g><path style="opacity:1" fill="#1f2026" d="M 1384.5,367.5 C 1396.38,375.372 1407.38,384.372 1417.5,394.5C 1405.94,386.215 1394.94,377.215 1384.5,367.5 Z"/></g>
<g><path style="opacity:1" fill="#282430" d="M 1175.5,374.5 C 1165.2,382.984 1154.53,390.984 1143.5,398.5C 1153.44,389.529 1164.11,381.529 1175.5,374.5 Z"/></g>
<g><path style="opacity:1" fill="#25242a" d="M 1439.5,412.5 C 1442.09,413.419 1444.09,415.086 1445.5,417.5C 1442.91,416.581 1440.91,414.914 1439.5,412.5 Z"/></g>
<g><path style="opacity:1" fill="#000000" d="M 1100.5,417.5 C 1102.78,417.077 1104.45,417.744 1105.5,419.5C 1111.44,429.043 1118.1,438.043 1125.5,446.5C 1130.93,452.266 1135.6,458.599 1139.5,465.5C 1144.12,473.078 1149.45,480.078 1155.5,486.5C 1157.26,487.262 1158.26,488.596 1158.5,490.5C 1160.02,493.533 1162.02,496.2 1164.5,498.5C 1166.02,501.533 1168.02,504.2 1170.5,506.5C 1175.98,512.8 1180.98,519.467 1185.5,526.5C 1194.79,539.787 1204.46,552.787 1214.5,565.5C 1216.85,567.86 1218.85,570.527 1220.5,573.5C 1228.44,585.71 1237.1,597.377 1246.5,608.5C 1251.32,614.138 1255.65,620.138 1259.5,626.5C 1265.12,635.447 1271.12,644.114 1277.5,652.5C 1279.66,657.5 1282.33,662.167 1285.5,666.5C 1286.99,670.818 1288.99,674.818 1291.5,678.5C 1292.34,678.842 1292.67,679.508 1292.5,680.5C 1293.65,684.787 1295.31,688.787 1297.5,692.5C 1299.4,695.53 1300.74,698.863 1301.5,702.5C 1304.23,711.191 1307.06,719.858 1310,728.5C 1310.46,727.906 1310.63,727.239 1310.5,726.5C 1311.41,728.933 1312.41,731.433 1313.5,734C 1312.89,734.87 1312.06,735.37 1311,735.5C 1305.2,731.69 1299.37,728.023 1293.5,724.5C 1285.5,718.493 1276.83,713.493 1267.5,709.5C 1266.51,709.672 1265.84,709.338 1265.5,708.5C 1254.99,701.581 1243.66,696.248 1231.5,692.5C 1198.4,681.721 1164.4,676.721 1129.5,677.5C 1131.96,672.02 1135.29,667.02 1139.5,662.5C 1148.3,646.444 1154.3,629.444 1157.5,611.5C 1156.68,602.196 1153.85,593.529 1149,585.5C 1143.65,576.788 1137.82,568.454 1131.5,560.5C 1130.92,558.251 1129.59,556.585 1127.5,555.5C 1126.83,555.5 1126.5,555.167 1126.5,554.5C 1123.77,550.263 1120.44,546.429 1116.5,543C 1085.91,538.176 1055.24,534.01 1024.5,530.5C 986.457,525.237 948.457,519.904 910.5,514.5C 906.733,513.205 902.733,512.539 898.5,512.5C 893.785,512.494 889.118,511.994 884.5,511C 884.043,510.586 883.709,510.086 883.5,509.5C 892.31,502.261 901.31,495.261 910.5,488.5C 919.751,482.252 928.418,475.252 936.5,467.5C 943.31,461.531 950.31,455.698 957.5,450C 965.927,446.617 974.593,444.117 983.5,442.5C 996.859,440.762 1010.19,438.095 1023.5,434.5C 1032.78,433.246 1041.78,431.246 1050.5,428.5C 1056.61,426.676 1062.95,425.343 1069.5,424.5C 1080.12,422.926 1090.45,420.593 1100.5,417.5 Z"/></g>
<g><path style="opacity:1" fill="#23242a" d="M 1445.5,417.5 C 1449.73,419.785 1453.39,422.785 1456.5,426.5C 1452.27,424.215 1448.61,421.215 1445.5,417.5 Z"/></g>
<g><path style="opacity:1" fill="#1a191f" d="M 1314.5,420.5 C 1306.67,419.875 1298.84,419.209 1291,418.5C 1282.47,419.036 1273.97,419.87 1265.5,421C 1250.43,424.747 1235.76,429.58 1221.5,435.5C 1251.97,418.91 1282.97,413.91 1314.5,420.5 Z"/></g>
<g><path style="opacity:1" fill="#242028" d="M 1317.5,421.5 C 1321.1,420.792 1324.77,421.292 1328.5,423C 1327.91,423.464 1327.24,423.631 1326.5,423.5C 1323.42,423.084 1320.42,422.417 1317.5,421.5 Z"/></g>
<g><path style="opacity:1" fill="#24262d" d="M 1100.5,417.5 C 1090.45,420.593 1080.12,422.926 1069.5,424.5C 1079.55,421.407 1089.88,419.074 1100.5,417.5 Z"/></g>
<g><path style="opacity:1" fill="#1d1e24" d="M 1105.5,419.5 C 1113.38,427.601 1120.05,436.601 1125.5,446.5C 1118.1,438.043 1111.44,429.043 1105.5,419.5 Z"/></g>
<g><path style="opacity:1" fill="#201d24" d="M 1329.5,424.5 C 1329.74,423.903 1330.24,423.57 1331,423.5C 1335.47,424.704 1339.63,426.371 1343.5,428.5C 1338.73,427.474 1334.06,426.141 1329.5,424.5 Z"/></g>
<g><path style="opacity:1" fill="#24262e" d="M 1050.5,428.5 C 1041.78,431.246 1032.78,433.246 1023.5,434.5C 1023.5,434.167 1023.5,433.833 1023.5,433.5C 1032.43,431.448 1041.43,429.781 1050.5,428.5 Z"/></g>
<g><path style="opacity:1" fill="#1c1b21" d="M 1463.5,432.5 C 1469.58,435.877 1474.91,440.211 1479.5,445.5C 1473.58,441.917 1468.25,437.584 1463.5,432.5 Z"/></g>
<g><path style="opacity:1" fill="#171520" d="M 1023.5,433.5 C 1023.5,433.833 1023.5,434.167 1023.5,434.5C 1010.19,438.095 996.859,440.762 983.5,442.5C 996.755,439.249 1010.09,436.249 1023.5,433.5 Z"/></g>
<g><path style="opacity:1" fill="#1e1b25" d="M 1361.5,436.5 C 1365.51,437.498 1368.84,439.498 1371.5,442.5C 1367.83,441 1364.49,439 1361.5,436.5 Z"/></g>
<g><path style="opacity:1" fill="#000000" d="M 1315.5,446.5 C 1323.85,448.827 1332.18,451.494 1340.5,454.5C 1353.68,461.252 1366.01,469.252 1377.5,478.5C 1381.63,482.13 1385.63,485.963 1389.5,490C 1382.87,497.801 1375.21,504.301 1366.5,509.5C 1358.49,514.17 1350.49,518.837 1342.5,523.5C 1339.16,525.731 1335.5,527.397 1331.5,528.5C 1317.04,533.158 1302.21,535.825 1287,536.5C 1272.2,536.341 1258.04,533.341 1244.5,527.5C 1235.06,524.617 1226.73,519.951 1219.5,513.5C 1211.11,505.018 1203.45,496.018 1196.5,486.5C 1195.6,485.791 1195.26,484.791 1195.5,483.5C 1204.97,476.377 1214.97,470.043 1225.5,464.5C 1229.63,468.806 1233.63,473.306 1237.5,478C 1241.33,480.75 1245.33,483.25 1249.5,485.5C 1250.11,485.376 1250.44,485.043 1250.5,484.5C 1258.33,487.763 1266.33,488.763 1274.5,487.5C 1287.07,485.051 1296.07,478.051 1301.5,466.5C 1301.66,464.847 1302.33,463.514 1303.5,462.5C 1306.38,457.664 1307.71,452.331 1307.5,446.5C 1307.62,445.414 1308.29,444.747 1309.5,444.5C 1311.6,444.977 1313.6,445.643 1315.5,446.5 Z"/></g>
<g><path style="opacity:1" fill="#1e1b23" d="M 1315.5,446.5 C 1324.57,447.217 1332.9,449.884 1340.5,454.5C 1332.18,451.494 1323.85,448.827 1315.5,446.5 Z"/></g>
<g><path style="opacity:1" fill="#1a181f" d="M 1203.5,445.5 C 1196.38,451.896 1188.71,457.563 1180.5,462.5C 1187.32,455.683 1194.98,450.017 1203.5,445.5 Z"/></g>
<g><path style="opacity:1" fill="#17151b" d="M 1165.5,445.5 C 1170.19,450.858 1174.52,456.525 1178.5,462.5C 1173.08,457.736 1168.75,452.069 1165.5,445.5 Z"/></g>
<g><path style="opacity:1" fill="#241c26" d="M 1307.5,446.5 C 1307.71,452.331 1306.38,457.664 1303.5,462.5C 1304.86,457.057 1306.19,451.724 1307.5,446.5 Z"/></g>
<g><path style="opacity:1" fill="#1f2127" d="M 1340.5,454.5 C 1354.95,459.285 1367.28,467.285 1377.5,478.5C 1366.01,469.252 1353.68,461.252 1340.5,454.5 Z"/></g>
<g><path style="opacity:1" fill="#1c1d21" d="M 1392.5,458.5 C 1399.41,463.904 1405.91,469.904 1412,476.5C 1412.46,477.094 1412.63,477.761 1412.5,478.5C 1405.5,472.167 1398.83,465.5 1392.5,458.5 Z"/></g>
<g><path style="opacity:1" fill="#211f2a" d="M 1225.5,463.5 C 1225.5,463.833 1225.5,464.167 1225.5,464.5C 1214.97,470.043 1204.97,476.377 1195.5,483.5C 1195.51,481.983 1196.18,480.816 1197.5,480C 1206.07,473.217 1215.4,467.717 1225.5,463.5 Z"/></g>
<g><path style="opacity:1" fill="#1a1a1f" d="M 1250.5,484.5 C 1250.44,485.043 1250.11,485.376 1249.5,485.5C 1245.33,483.25 1241.33,480.75 1237.5,478C 1233.63,473.306 1229.63,468.806 1225.5,464.5C 1225.5,464.167 1225.5,463.833 1225.5,463.5C 1225.9,462.45 1226.57,462.45 1227.5,463.5C 1233.61,472.282 1241.28,479.282 1250.5,484.5 Z"/></g>
<g><path style="opacity:1" fill="#23212d" d="M 936.5,467.5 C 928.418,475.252 919.751,482.252 910.5,488.5C 918.06,480.063 926.726,473.063 936.5,467.5 Z"/></g>
<g><path style="opacity:1" fill="#1d1d22" d="M 1139.5,465.5 C 1140.5,465.414 1141.33,465.748 1142,466.5C 1146.77,473.051 1151.27,479.718 1155.5,486.5C 1149.45,480.078 1144.12,473.078 1139.5,465.5 Z"/></g>
<g><path style="opacity:1" fill="#1b161f" d="M 1301.5,466.5 C 1296.07,478.051 1287.07,485.051 1274.5,487.5C 1278.74,485.379 1283.07,483.213 1287.5,481C 1292.52,476.422 1297.19,471.589 1301.5,466.5 Z"/></g>
<g><path style="opacity:1" fill="#1c191f" d="M 1507.5,471.5 C 1511.43,485.914 1514.77,500.581 1517.5,515.5C 1513.04,501.206 1509.7,486.54 1507.5,471.5 Z"/></g>
<g><path style="opacity:1" fill="#252329" d="M 1158.5,490.5 C 1161.47,492.443 1163.47,495.109 1164.5,498.5C 1162.02,496.2 1160.02,493.533 1158.5,490.5 Z"/></g>
<g><path style="opacity:1" fill="#222228" d="M 1164.5,498.5 C 1167.47,500.443 1169.47,503.109 1170.5,506.5C 1168.02,504.2 1166.02,501.533 1164.5,498.5 Z"/></g>
<g><path style="opacity:1" fill="#1b1a20" d="M 1196.5,486.5 C 1203.45,496.018 1211.11,505.018 1219.5,513.5C 1209.3,506.633 1201.63,497.633 1196.5,486.5 Z"/></g>
<g><path style="opacity:1" fill="#241e28" d="M 898.5,512.5 C 902.733,512.539 906.733,513.205 910.5,514.5C 906.236,514.656 902.236,513.989 898.5,512.5 Z"/></g>
<g><path style="opacity:1" fill="#1f1c24" d="M 1366.5,509.5 C 1362.59,513.134 1358.26,516.301 1353.5,519C 1350.03,521.072 1346.36,522.572 1342.5,523.5C 1350.49,518.837 1358.49,514.17 1366.5,509.5 Z"/></g>
<g><path style="opacity:1" fill="#14131c" d="M 1416.5,528.5 C 1409.95,525.64 1403.45,522.64 1397,519.5C 1393.54,522.802 1389.71,525.469 1385.5,527.5C 1388.43,524.683 1391.43,521.849 1394.5,519C 1402.9,519.697 1410.23,522.864 1416.5,528.5 Z"/></g>
<g><path style="opacity:1" fill="#212127" d="M 1185.5,526.5 C 1196.32,538.648 1205.98,551.648 1214.5,565.5C 1204.46,552.787 1194.79,539.787 1185.5,526.5 Z"/></g>
<g><path style="opacity:1" fill="#1c1e25" d="M 1445.5,530.5 C 1447.93,534.111 1449.6,538.111 1450.5,542.5C 1448.07,538.889 1446.4,534.889 1445.5,530.5 Z"/></g>
<g><path style="opacity:1" fill="#17141b" d="M 1244.5,527.5 C 1258.04,533.341 1272.2,536.341 1287,536.5C 1302.21,535.825 1317.04,533.158 1331.5,528.5C 1303.8,540.828 1275.8,541.328 1247.5,530C 1246.06,529.623 1245.06,528.79 1244.5,527.5 Z"/></g>
<g><path style="opacity:1" fill="#1e1b23" d="M 1024.5,530.5 C 1055.24,534.01 1085.91,538.176 1116.5,543C 1120.44,546.429 1123.77,550.263 1126.5,554.5C 1122.7,551.204 1119.04,547.704 1115.5,544C 1084.98,539.807 1054.65,535.307 1024.5,530.5 Z"/></g>
<g><path style="opacity:1" fill="#232329" d="M 1445.5,547.5 C 1447.75,548.08 1449.42,549.413 1450.5,551.5C 1448.25,550.92 1446.58,549.587 1445.5,547.5 Z"/></g>
<g><path style="opacity:1" fill="#1c1b22" d="M 1450.5,542.5 C 1452.86,546.562 1454.86,550.895 1456.5,555.5C 1453.9,555.648 1451.9,554.315 1450.5,551.5C 1451.77,552.087 1452.77,552.087 1453.5,551.5C 1452.2,548.573 1451.2,545.573 1450.5,542.5 Z"/></g>
<g><path style="opacity:1" fill="#26232b" d="M 1371.5,536.5 C 1369.75,538.223 1367.75,539.723 1365.5,541C 1330.42,559.519 1294.09,565.352 1256.5,558.5C 1297.31,563.738 1335.64,556.404 1371.5,536.5 Z"/></g>
<g><path style="opacity:1" fill="#201f2b" d="M 1127.5,555.5 C 1129.59,556.585 1130.92,558.251 1131.5,560.5C 1129.41,559.415 1128.08,557.749 1127.5,555.5 Z"/></g>
<g><path style="opacity:1" fill="#1b1b21" d="M 1220.5,573.5 C 1227.13,580.731 1233.29,588.398 1239,596.5C 1241.75,600.402 1244.25,604.402 1246.5,608.5C 1237.1,597.377 1228.44,585.71 1220.5,573.5 Z"/></g>
<g><path style="opacity:1" fill="#1c1a21" d="M 1288.5,610.5 C 1294.15,616.459 1298.82,623.125 1302.5,630.5C 1296.85,624.541 1292.18,617.875 1288.5,610.5 Z"/></g>
<g><path style="opacity:1" fill="#1e1c23" d="M 1259.5,626.5 C 1266.98,634.113 1272.98,642.779 1277.5,652.5C 1271.12,644.114 1265.12,635.447 1259.5,626.5 Z"/></g>
<g><path style="opacity:1" fill="#1d1d23" d="M 1314.5,650.5 C 1320.46,658.749 1325.13,667.749 1328.5,677.5C 1323.58,668.665 1318.92,659.665 1314.5,650.5 Z"/></g>
<g><path style="opacity:1" fill="#222229" d="M 1277.5,652.5 C 1281.19,656.551 1283.86,661.217 1285.5,666.5C 1282.33,662.167 1279.66,657.5 1277.5,652.5 Z"/></g>
<g><path style="opacity:1" fill="#212025" d="M 1552.5,667.5 C 1554.1,671.921 1555.1,676.588 1555.5,681.5C 1553.58,677.143 1552.58,672.477 1552.5,667.5 Z"/></g>
<g><path style="opacity:1" fill="#28252e" d="M 1285.5,666.5 C 1288.54,669.914 1290.54,673.914 1291.5,678.5C 1288.99,674.818 1286.99,670.818 1285.5,666.5 Z"/></g>
<g><path style="opacity:1" fill="#1d1b26" d="M 1328.5,677.5 C 1331.27,681.385 1333.27,685.718 1334.5,690.5C 1331.72,686.595 1329.72,682.262 1328.5,677.5 Z"/></g>
<g><path style="opacity:1" fill="#22242c" d="M 1555.5,681.5 C 1556.77,683.905 1557.43,686.572 1557.5,689.5C 1555.96,687.162 1555.29,684.495 1555.5,681.5 Z"/></g>
<g><path style="opacity:1" fill="#1f1d25" d="M 1292.5,680.5 C 1295.24,683.983 1296.9,687.983 1297.5,692.5C 1295.31,688.787 1293.65,684.787 1292.5,680.5 Z"/></g>
<g><path style="opacity:1" fill="#1a1520" d="M 1231.5,692.5 C 1243.66,696.248 1254.99,701.581 1265.5,708.5C 1253.83,703.66 1242.49,698.327 1231.5,692.5 Z"/></g>
<g><path style="opacity:1" fill="#29272c" d="M 1562.5,711.5 C 1563.77,713.905 1564.43,716.572 1564.5,719.5C 1562.96,717.162 1562.29,714.495 1562.5,711.5 Z"/></g>
<g><path style="opacity:1" fill="#1e1c24" d="M 1267.5,709.5 C 1276.83,713.493 1285.5,718.493 1293.5,724.5C 1284.5,720.002 1275.83,715.002 1267.5,709.5 Z"/></g>
<g><path style="opacity:1" fill="#191921" d="M 1219.5,734.5 C 1187.37,721.22 1154.03,717.053 1119.5,722C 1104.59,724.562 1089.92,728.062 1075.5,732.5C 1121.56,714.712 1167.89,714.212 1214.5,731C 1216.58,731.697 1218.25,732.864 1219.5,734.5 Z"/></g>
<g><path style="opacity:1" fill="#000000" d="M 1219.5,734.5 C 1234.42,739.775 1248.42,746.775 1261.5,755.5C 1270.49,761.996 1279.82,767.996 1289.5,773.5C 1299.06,779.108 1308.06,785.441 1316.5,792.5C 1317.92,803.964 1319.25,815.298 1320.5,826.5C 1322.29,866.291 1316.63,904.957 1303.5,942.5C 1298.77,956.619 1292.44,969.952 1284.5,982.5C 1276.56,994.44 1268.23,1006.11 1259.5,1017.5C 1257.47,1019.86 1255.47,1022.19 1253.5,1024.5C 1243.17,1034.64 1232.5,1044.31 1221.5,1053.5C 1218.37,1056.9 1214.71,1059.56 1210.5,1061.5C 1200.33,1068.09 1189.99,1074.42 1179.5,1080.5C 1166.31,1086.6 1153.31,1092.93 1140.5,1099.5C 1138.57,1101.29 1136.24,1102.29 1133.5,1102.5C 1107.19,1114.32 1081.19,1126.66 1055.5,1139.5C 1053.15,1141.34 1050.48,1142.67 1047.5,1143.5C 1022.53,1154.65 997.866,1166.32 973.5,1178.5C 971.819,1180.01 969.819,1181.01 967.5,1181.5C 943.178,1192.27 919.178,1203.6 895.5,1215.5C 895.158,1216.34 894.492,1216.67 893.5,1216.5C 888.081,1218.04 883.081,1220.38 878.5,1223.5C 876.151,1225.34 873.485,1226.67 870.5,1227.5C 849.745,1236.38 829.411,1246.05 809.5,1256.5C 802.077,1259.05 795.077,1262.38 788.5,1266.5C 765.046,1276.73 742.046,1287.73 719.5,1299.5C 713.413,1301.38 707.746,1304.04 702.5,1307.5C 700.819,1309.01 698.819,1310.01 696.5,1310.5C 681.081,1316.71 666.081,1323.71 651.5,1331.5C 651.158,1332.34 650.492,1332.67 649.5,1332.5C 643.413,1334.38 637.746,1337.04 632.5,1340.5C 625.17,1344.73 617.503,1348.4 609.5,1351.5C 596.533,1356.98 583.866,1362.98 571.5,1369.5C 570.486,1370.67 569.153,1371.34 567.5,1371.5C 562.081,1373.04 557.081,1375.38 552.5,1378.5C 552.167,1378.5 551.833,1378.5 551.5,1378.5C 557.5,1369.83 563.5,1361.17 569.5,1352.5C 573.437,1345.62 578.104,1339.29 583.5,1333.5C 585.984,1331.2 587.984,1328.53 589.5,1325.5C 590.906,1325.03 591.573,1324.03 591.5,1322.5C 593.262,1321.74 594.262,1320.4 594.5,1318.5C 596.016,1315.47 598.016,1312.8 600.5,1310.5C 604.984,1305.53 608.984,1300.2 612.5,1294.5C 618.762,1284.58 625.762,1275.24 633.5,1266.5C 639.545,1259.12 645.212,1251.45 650.5,1243.5C 655.503,1236.82 660.503,1230.16 665.5,1223.5C 668.933,1220.4 671.6,1216.73 673.5,1212.5C 677.262,1209.07 680.262,1205.07 682.5,1200.5C 685.556,1198.05 687.889,1195.05 689.5,1191.5C 694.756,1183.57 700.423,1175.9 706.5,1168.5C 708.587,1167.42 709.92,1165.75 710.5,1163.5C 710.738,1161.6 711.738,1160.26 713.5,1159.5C 715.262,1158.74 716.262,1157.4 716.5,1155.5C 729.455,1137.21 742.788,1119.21 756.5,1101.5C 763.21,1093.46 769.543,1085.12 775.5,1076.5C 779.934,1069.95 784.601,1063.62 789.5,1057.5C 790.906,1057.03 791.573,1056.03 791.5,1054.5C 793.262,1053.74 794.262,1052.4 794.5,1050.5C 796.984,1048.2 798.984,1045.53 800.5,1042.5C 804.262,1039.07 807.262,1035.07 809.5,1030.5C 811.587,1029.42 812.92,1027.75 813.5,1025.5C 817.446,1018.59 822.113,1012.26 827.5,1006.5C 829.262,1005.74 830.262,1004.4 830.5,1002.5C 832.262,1001.74 833.262,1000.4 833.5,998.5C 835.262,997.738 836.262,996.404 836.5,994.5C 838.262,993.738 839.262,992.404 839.5,990.5C 841.262,989.738 842.262,988.404 842.5,986.5C 844.435,982.293 847.102,978.627 850.5,975.5C 852.587,974.415 853.92,972.749 854.5,970.5C 862.357,958.773 870.69,947.44 879.5,936.5C 885.559,930.048 890.892,923.048 895.5,915.5C 900.813,907.528 906.479,899.861 912.5,892.5C 914.9,890.704 916.567,888.37 917.5,885.5C 919.262,884.738 920.262,883.404 920.5,881.5C 922.262,880.738 923.262,879.404 923.5,877.5C 925.262,876.738 926.262,875.404 926.5,873.5C 946.92,845.022 968.087,817.022 990,789.5C 993.036,786.296 996.203,783.296 999.5,780.5C 1003.77,777.899 1007.44,774.566 1010.5,770.5C 1029.63,753.756 1051.29,741.089 1075.5,732.5C 1089.92,728.062 1104.59,724.562 1119.5,722C 1154.03,717.053 1187.37,721.22 1219.5,734.5 Z M 1013.5,927.5 C 1013.83,927.5 1014.17,927.5 1014.5,927.5C 1010.22,937.733 1006.22,948.066 1002.5,958.5C 999.039,964.43 996.373,970.764 994.5,977.5C 988.039,990.766 982.372,1004.43 977.5,1018.5C 973.185,1025.8 969.352,1033.46 966,1041.5C 965.26,1042.75 965.427,1043.75 966.5,1044.5C 970.901,1045 974.901,1043.66 978.5,1040.5C 990.201,1036.48 1001.2,1031.15 1011.5,1024.5C 1022.77,1018.86 1033.77,1012.7 1044.5,1006C 1049.35,1002.64 1054.02,999.137 1058.5,995.5C 1066.34,991.657 1073.34,986.657 1079.5,980.5C 1086.43,975.87 1092.76,970.536 1098.5,964.5C 1109.08,957.921 1118.08,949.587 1125.5,939.5C 1126.5,939.167 1127.17,938.5 1127.5,937.5C 1128.61,937.443 1129.61,937.11 1130.5,936.5C 1130.5,937.167 1130.5,937.833 1130.5,938.5C 1127.76,940.975 1125.76,943.975 1124.5,947.5C 1122.1,949.296 1120.43,951.63 1119.5,954.5C 1115.74,957.929 1112.74,961.929 1110.5,966.5C 1108.74,967.262 1107.74,968.596 1107.5,970.5C 1105.41,971.585 1104.08,973.251 1103.5,975.5C 1101.18,978.126 1098.84,980.793 1096.5,983.5C 1093.1,985.9 1090.43,988.9 1088.5,992.5C 1087.5,992.833 1086.83,993.5 1086.5,994.5C 1079.17,1001.17 1072.17,1008.17 1065.5,1015.5C 1061.81,1018.86 1058.14,1022.2 1054.5,1025.5C 1051.91,1026.42 1049.91,1028.09 1048.5,1030.5C 1046.25,1031.08 1044.58,1032.41 1043.5,1034.5C 1041.25,1035.08 1039.58,1036.41 1038.5,1038.5C 1036.6,1038.74 1035.26,1039.74 1034.5,1041.5C 1032.25,1042.08 1030.58,1043.41 1029.5,1045.5C 1020.4,1051.42 1011.4,1057.59 1002.5,1064C 993.437,1069.19 984.437,1074.36 975.5,1079.5C 964.747,1084.04 954.08,1088.87 943.5,1094C 937.448,1096.69 931.781,1099.85 926.5,1103.5C 913.311,1109.26 900.311,1115.26 887.5,1121.5C 876.177,1126.49 864.844,1131.49 853.5,1136.5C 854.248,1134.67 855.248,1133 856.5,1131.5C 864.133,1123.56 870.799,1114.9 876.5,1105.5C 883.519,1097.14 890.185,1088.48 896.5,1079.5C 901.647,1075.02 905.647,1069.69 908.5,1063.5C 913.647,1057.87 918.314,1051.87 922.5,1045.5C 924.587,1044.42 925.92,1042.75 926.5,1040.5C 933.543,1032.12 940.209,1023.46 946.5,1014.5C 949.556,1012.05 951.889,1009.05 953.5,1005.5C 967.857,986.815 982.191,968.148 996.5,949.5C 999.556,947.051 1001.89,944.051 1003.5,940.5C 1007.06,936.386 1010.4,932.052 1013.5,927.5 Z"/></g>
<g><path style="opacity:1" fill="#19161c" d="M 1301.5,702.5 C 1306.05,709.793 1309.05,717.793 1310.5,726.5C 1310.63,727.239 1310.46,727.906 1310,728.5C 1307.06,719.858 1304.23,711.191 1301.5,702.5 Z"/></g>
<g><path style="opacity:1" fill="#1a1921" d="M 1261.5,755.5 C 1271.64,760.325 1280.98,766.325 1289.5,773.5C 1279.82,767.996 1270.49,761.996 1261.5,755.5 Z"/></g>
<g><path style="opacity:1" fill="#14131c" d="M 1367.5,775.5 C 1373.16,780.157 1378.16,785.491 1382.5,791.5C 1380.28,790.797 1378.45,789.464 1377,787.5C 1373.62,783.625 1370.45,779.625 1367.5,775.5 Z"/></g>
<g><path style="opacity:1" fill="#19151f" d="M 1010.5,770.5 C 1007.44,774.566 1003.77,777.899 999.5,780.5C 1002.56,776.434 1006.23,773.101 1010.5,770.5 Z"/></g>
<g><path style="opacity:1" fill="#1a1b21" d="M 1585.5,772.5 C 1593.21,785.925 1599.88,799.925 1605.5,814.5C 1598.32,800.812 1591.66,786.812 1585.5,772.5 Z"/></g>
<g><path style="opacity:1" fill="#18191c" d="M 1316.5,792.5 C 1317.22,792.918 1317.72,793.584 1318,794.5C 1319.55,804.8 1320.72,815.134 1321.5,825.5C 1320.83,825.5 1320.5,825.833 1320.5,826.5C 1319.25,815.298 1317.92,803.964 1316.5,792.5 Z"/></g>
<g><path style="opacity:1" fill="#191920" d="M 1402.5,817.5 C 1410.34,826.679 1417,836.679 1422.5,847.5C 1415.34,837.852 1408.67,827.852 1402.5,817.5 Z"/></g>
<g><path style="opacity:1" fill="#232127" d="M 1363.5,828.5 C 1364.75,840.864 1364.75,851.864 1363.5,861.5C 1363.1,850.32 1363.1,839.32 1363.5,828.5 Z"/></g>
<g><path style="opacity:1" fill="#1c1d23" d="M 1376.5,838.5 C 1388.46,847.462 1399.13,857.795 1408.5,869.5C 1397.81,859.139 1387.14,848.806 1376.5,838.5 Z"/></g>
<g><path style="opacity:1" fill="#1f1e23" d="M 1600.5,858.5 C 1598.22,872.642 1594.55,886.309 1589.5,899.5C 1593,885.689 1596.67,872.022 1600.5,858.5 Z"/></g>
<g><path style="opacity:1" fill="#242328" d="M 1362.5,867.5 C 1363.68,873.882 1363.35,880.216 1361.5,886.5C 1361.9,880.171 1362.23,873.838 1362.5,867.5 Z"/></g>
<g><path style="opacity:1" fill="#2e2c3a" d="M 926.5,873.5 C 926.262,875.404 925.262,876.738 923.5,877.5C 923.738,875.596 924.738,874.262 926.5,873.5 Z"/></g>
<g><path style="opacity:1" fill="#212128" d="M 1412.5,873.5 C 1415.24,875.239 1417.24,877.573 1418.5,880.5C 1415.76,878.761 1413.76,876.427 1412.5,873.5 Z"/></g>
<g><path style="opacity:1" fill="#332e3c" d="M 923.5,877.5 C 923.262,879.404 922.262,880.738 920.5,881.5C 920.738,879.596 921.738,878.262 923.5,877.5 Z"/></g>
<g><path style="opacity:1" fill="#322d3d" d="M 920.5,881.5 C 920.262,883.404 919.262,884.738 917.5,885.5C 917.738,883.596 918.738,882.262 920.5,881.5 Z"/></g>
<g><path style="opacity:1" fill="#2b2634" d="M 917.5,885.5 C 916.567,888.37 914.9,890.704 912.5,892.5C 913.433,889.63 915.1,887.296 917.5,885.5 Z"/></g>
<g><path style="opacity:1" fill="#211f25" d="M 1321.5,825.5 C 1323.23,858.411 1319.73,890.745 1311,922.5C 1308.96,929.459 1306.46,936.126 1303.5,942.5C 1316.63,904.957 1322.29,866.291 1320.5,826.5C 1320.5,825.833 1320.83,825.5 1321.5,825.5 Z"/></g>
<g><path style="opacity:1" fill="#24242b" d="M 1445.5,912.5 C 1447.59,913.585 1448.92,915.251 1449.5,917.5C 1447.41,916.415 1446.08,914.749 1445.5,912.5 Z"/></g>
<g><path style="opacity:1" fill="#1b1a24" d="M 1453.5,907.5 C 1456.96,913.43 1459.63,919.764 1461.5,926.5C 1458.04,920.57 1455.37,914.236 1453.5,907.5 Z"/></g>
<g><path style="opacity:1" fill="#221b22" d="M 1015.5,927.5 C 1015.17,926.167 1014.83,926.167 1014.5,927.5C 1014.17,927.5 1013.83,927.5 1013.5,927.5C 1015.07,924.717 1016.9,922.051 1019,919.5C 1018.67,922.495 1017.5,925.162 1015.5,927.5 Z"/></g>
<g><path style="opacity:1" fill="#25212e" d="M 895.5,915.5 C 890.892,923.048 885.559,930.048 879.5,936.5C 882.818,930.545 886.651,924.878 891,919.5C 892.371,917.959 893.871,916.625 895.5,915.5 Z"/></g>
<g><path style="opacity:1" fill="#221a26" d="M 1130.5,938.5 C 1130.5,937.833 1130.5,937.167 1130.5,936.5C 1129.61,937.11 1128.61,937.443 1127.5,937.5C 1130.46,934.036 1133.63,930.703 1137,927.5C 1137.67,928.167 1137.67,928.833 1137,929.5C 1134.81,932.567 1132.65,935.567 1130.5,938.5 Z"/></g>
<g><path style="opacity:1" fill="#2a212e" d="M 1130.5,938.5 C 1129.28,942.049 1127.28,945.049 1124.5,947.5C 1125.76,943.975 1127.76,940.975 1130.5,938.5 Z"/></g>
<g><path style="opacity:1" fill="#27262f" d="M 1003.5,940.5 C 1001.89,944.051 999.556,947.051 996.5,949.5C 998.111,945.949 1000.44,942.949 1003.5,940.5 Z"/></g>
<g><path style="opacity:1" fill="#27222c" d="M 1014.5,927.5 C 1014.83,927.5 1015.17,927.5 1015.5,927.5C 1011.96,938.236 1007.63,948.569 1002.5,958.5C 1006.22,948.066 1010.22,937.733 1014.5,927.5 Z"/></g>
<g><path style="opacity:1" fill="#23212a" d="M 1125.5,939.5 C 1118.08,949.587 1109.08,957.921 1098.5,964.5C 1107.65,956.408 1116.65,948.075 1125.5,939.5 Z"/></g>
<g><path style="opacity:1" fill="#322a38" d="M 1124.5,947.5 C 1123.57,950.37 1121.9,952.704 1119.5,954.5C 1120.43,951.63 1122.1,949.296 1124.5,947.5 Z"/></g>
<g><path style="opacity:1" fill="#322b38" d="M 1119.5,954.5 C 1117.26,959.071 1114.26,963.071 1110.5,966.5C 1112.74,961.929 1115.74,957.929 1119.5,954.5 Z"/></g>
<g><path style="opacity:1" fill="#25272c" d="M 1568.5,953.5 C 1566.96,958.919 1564.62,963.919 1561.5,968.5C 1563.04,963.081 1565.38,958.081 1568.5,953.5 Z"/></g>
<g><path style="opacity:1" fill="#2a2632" d="M 1002.5,958.5 C 1000.63,965.236 997.961,971.57 994.5,977.5C 996.373,970.764 999.039,964.43 1002.5,958.5 Z"/></g>
<g><path style="opacity:1" fill="#201927" d="M 854.5,970.5 C 853.92,972.749 852.587,974.415 850.5,975.5C 851.08,973.251 852.413,971.585 854.5,970.5 Z"/></g>
<g><path style="opacity:1" fill="#201a27" d="M 1107.5,970.5 C 1106.92,972.749 1105.59,974.415 1103.5,975.5C 1104.08,973.251 1105.41,971.585 1107.5,970.5 Z"/></g>
<g><path style="opacity:1" fill="#1a151e" d="M 1340.5,964.5 C 1337.15,974.867 1332.48,984.533 1326.5,993.5C 1330.93,983.642 1335.6,973.975 1340.5,964.5 Z"/></g>
<g><path style="opacity:1" fill="#2e2a37" d="M 842.5,986.5 C 842.262,988.404 841.262,989.738 839.5,990.5C 839.738,988.596 840.738,987.262 842.5,986.5 Z"/></g>
<g><path style="opacity:1" fill="#27212e" d="M 1096.5,983.5 C 1094.57,987.1 1091.9,990.1 1088.5,992.5C 1090.43,988.9 1093.1,985.9 1096.5,983.5 Z"/></g>
<g><path style="opacity:1" fill="#1f1d24" d="M 1079.5,980.5 C 1073.34,986.657 1066.34,991.657 1058.5,995.5C 1065.22,990.119 1072.22,985.119 1079.5,980.5 Z"/></g>
<g><path style="opacity:1" fill="#1a1820" d="M 1557.5,976.5 C 1554.51,984.482 1550.51,991.815 1545.5,998.5C 1549,990.839 1553,983.505 1557.5,976.5 Z"/></g>
<g><path style="opacity:1" fill="#1d1b22" d="M 1284.5,982.5 C 1278.1,995.564 1269.77,1007.23 1259.5,1017.5C 1268.23,1006.11 1276.56,994.44 1284.5,982.5 Z"/></g>
<g><path style="opacity:1" fill="#322f3a" d="M 839.5,990.5 C 839.262,992.404 838.262,993.738 836.5,994.5C 836.738,992.596 837.738,991.262 839.5,990.5 Z"/></g>
<g><path style="opacity:1" fill="#252029" d="M 1326.5,993.5 C 1325.92,996.331 1324.59,998.664 1322.5,1000.5C 1323.08,997.669 1324.41,995.336 1326.5,993.5 Z"/></g>
<g><path style="opacity:1" fill="#2f2b38" d="M 836.5,994.5 C 836.262,996.404 835.262,997.738 833.5,998.5C 833.738,996.596 834.738,995.262 836.5,994.5 Z"/></g>
<g><path style="opacity:1" fill="#322b39" d="M 833.5,998.5 C 833.262,1000.4 832.262,1001.74 830.5,1002.5C 830.738,1000.6 831.738,999.262 833.5,998.5 Z"/></g>
<g><path style="opacity:1" fill="#2f2938" d="M 830.5,1002.5 C 830.262,1004.4 829.262,1005.74 827.5,1006.5C 827.738,1004.6 828.738,1003.26 830.5,1002.5 Z"/></g>
<g><path style="opacity:1" fill="#231f29" d="M 1086.5,994.5 C 1086.63,995.239 1086.46,995.906 1086,996.5C 1079.58,1003.43 1072.74,1009.76 1065.5,1015.5C 1072.17,1008.17 1079.17,1001.17 1086.5,994.5 Z"/></g>
<g><path style="opacity:1" fill="#25242d" d="M 953.5,1005.5 C 951.889,1009.05 949.556,1012.05 946.5,1014.5C 948.111,1010.95 950.444,1007.95 953.5,1005.5 Z"/></g>
<g><path style="opacity:1" fill="#1f1a26" d="M 813.5,1025.5 C 812.92,1027.75 811.587,1029.42 809.5,1030.5C 810.08,1028.25 811.413,1026.58 813.5,1025.5 Z"/></g>
<g><path style="opacity:1" fill="#211b27" d="M 1054.5,1025.5 C 1053.09,1027.91 1051.09,1029.58 1048.5,1030.5C 1049.91,1028.09 1051.91,1026.42 1054.5,1025.5 Z"/></g>
<g><path style="opacity:1" fill="#212128" d="M 1011.5,1024.5 C 1001.2,1031.15 990.201,1036.48 978.5,1040.5C 989.249,1034.8 1000.25,1029.46 1011.5,1024.5 Z"/></g>
<g><path style="opacity:1" fill="#292430" d="M 1048.5,1030.5 C 1047.42,1032.59 1045.75,1033.92 1043.5,1034.5C 1044.58,1032.41 1046.25,1031.08 1048.5,1030.5 Z"/></g>
<g><path style="opacity:1" fill="#1f1b27" d="M 977.5,1018.5 C 973.832,1027.17 970.165,1035.84 966.5,1044.5C 965.427,1043.75 965.26,1042.75 966,1041.5C 969.352,1033.46 973.185,1025.8 977.5,1018.5 Z"/></g>
<g><path style="opacity:1" fill="#2c2934" d="M 1043.5,1034.5 C 1042.42,1036.59 1040.75,1037.92 1038.5,1038.5C 1039.58,1036.41 1041.25,1035.08 1043.5,1034.5 Z"/></g>
<g><path style="opacity:1" fill="#2b2533" d="M 809.5,1030.5 C 807.262,1035.07 804.262,1039.07 800.5,1042.5C 802.738,1037.93 805.738,1033.93 809.5,1030.5 Z"/></g>
<g><path style="opacity:1" fill="#2a2630" d="M 978.5,1040.5 C 974.901,1043.66 970.901,1045 966.5,1044.5C 970.51,1043.16 974.51,1041.83 978.5,1040.5 Z"/></g>
<g><path style="opacity:1" fill="#21202a" d="M 926.5,1040.5 C 925.92,1042.75 924.587,1044.42 922.5,1045.5C 923.08,1043.25 924.413,1041.58 926.5,1040.5 Z"/></g>
<g><path style="opacity:1" fill="#282731" d="M 1034.5,1041.5 C 1033.42,1043.59 1031.75,1044.92 1029.5,1045.5C 1030.58,1043.41 1032.25,1042.08 1034.5,1041.5 Z"/></g>
<g><path style="opacity:1" fill="#18171c" d="M 1253.5,1024.5 C 1244.7,1036.3 1234.04,1045.97 1221.5,1053.5C 1232.5,1044.31 1243.17,1034.64 1253.5,1024.5 Z"/></g>
<g><path style="opacity:1" fill="#1c1c22" d="M 1523.5,1033.5 C 1519.66,1041.34 1514.66,1048.34 1508.5,1054.5C 1513.12,1047.22 1518.12,1040.22 1523.5,1033.5 Z"/></g>
<g><path style="opacity:1" fill="#2e2839" d="M 800.5,1042.5 C 798.984,1045.53 796.984,1048.2 794.5,1050.5C 795.529,1047.11 797.529,1044.44 800.5,1042.5 Z"/></g>
<g><path style="opacity:1" fill="#2e2a38" d="M 794.5,1050.5 C 794.262,1052.4 793.262,1053.74 791.5,1054.5C 791.738,1052.6 792.738,1051.26 794.5,1050.5 Z"/></g>
<g><path style="opacity:1" fill="#2d2837" d="M 791.5,1054.5 C 791.573,1056.03 790.906,1057.03 789.5,1057.5C 789.427,1055.97 790.094,1054.97 791.5,1054.5 Z"/></g>
<g><path style="opacity:1" fill="#1d1922" d="M 1301.5,1032.5 C 1294.88,1040.96 1288.05,1049.29 1281,1057.5C 1276.57,1062.43 1271.74,1066.77 1266.5,1070.5C 1278.27,1057.74 1289.94,1045.07 1301.5,1032.5 Z"/></g>
<g><path style="opacity:1" fill="#1b1a21" d="M 908.5,1063.5 C 905.647,1069.69 901.647,1075.02 896.5,1079.5C 900.122,1073.88 904.122,1068.55 908.5,1063.5 Z"/></g>
<g><path style="opacity:1" fill="#1a181f" d="M 1210.5,1061.5 C 1201.31,1069.6 1190.98,1075.93 1179.5,1080.5C 1189.99,1074.42 1200.33,1068.09 1210.5,1061.5 Z"/></g>
<g><path style="opacity:1" fill="#1c1c21" d="M 1494.5,1072.5 C 1492.12,1077.25 1488.78,1081.25 1484.5,1084.5C 1487.36,1080.12 1490.69,1076.12 1494.5,1072.5 Z"/></g>
<g><path style="opacity:1" fill="#201e26" d="M 1179.5,1080.5 C 1167.2,1088.15 1154.2,1094.48 1140.5,1099.5C 1153.31,1092.93 1166.31,1086.6 1179.5,1080.5 Z"/></g>
<g><path style="opacity:1" fill="#221e29" d="M 1261.5,1075.5 C 1250.38,1085.95 1238.38,1095.28 1225.5,1103.5C 1225.41,1102.5 1225.75,1101.67 1226.5,1101C 1238.23,1092.48 1249.89,1083.98 1261.5,1075.5 Z"/></g>
<g><path style="opacity:1" fill="#1b1b1f" d="M 1484.5,1084.5 C 1480.77,1090.59 1476.11,1095.92 1470.5,1100.5C 1474.7,1094.78 1479.36,1089.45 1484.5,1084.5 Z"/></g>
<g><path style="opacity:1" fill="#24212d" d="M 775.5,1076.5 C 769.543,1085.12 763.21,1093.46 756.5,1101.5C 761.689,1092.31 768.022,1083.98 775.5,1076.5 Z"/></g>
<g><path style="opacity:1" fill="#1c1b25" d="M 975.5,1079.5 C 959.605,1088.28 943.271,1096.28 926.5,1103.5C 931.781,1099.85 937.448,1096.69 943.5,1094C 954.08,1088.87 964.747,1084.04 975.5,1079.5 Z"/></g>
<g><path style="opacity:1" fill="#25232c" d="M 1214.5,1109.5 C 1212.66,1111.59 1210.33,1112.92 1207.5,1113.5C 1209.34,1111.41 1211.67,1110.08 1214.5,1109.5 Z"/></g>
<g><path style="opacity:1" fill="#25212b" d="M 1207.5,1113.5 C 1205.66,1115.59 1203.33,1116.92 1200.5,1117.5C 1202.34,1115.41 1204.67,1114.08 1207.5,1113.5 Z"/></g>
<g><path style="opacity:1" fill="#201f28" d="M 876.5,1105.5 C 870.799,1114.9 864.133,1123.56 856.5,1131.5C 862.685,1122.46 869.352,1113.8 876.5,1105.5 Z"/></g>
<g><path style="opacity:1" fill="#1f1c24" d="M 1133.5,1102.5 C 1127.55,1106.48 1121.22,1109.98 1114.5,1113C 1095.04,1122.4 1075.37,1131.23 1055.5,1139.5C 1081.19,1126.66 1107.19,1114.32 1133.5,1102.5 Z"/></g>
<g><path style="opacity:1" fill="#1b1b1f" d="M 1463.5,1107.5 C 1453.42,1119.08 1442.76,1130.25 1431.5,1141C 1430.91,1141.46 1430.24,1141.63 1429.5,1141.5C 1440.5,1129.83 1451.83,1118.5 1463.5,1107.5 Z"/></g>
<g><path style="opacity:1" fill="#282430" d="M 887.5,1121.5 C 875.007,1127.73 862.507,1134.06 850,1140.5C 849.721,1138.59 850.554,1137.25 852.5,1136.5C 852.833,1137.83 853.167,1137.83 853.5,1136.5C 864.844,1131.49 876.177,1126.49 887.5,1121.5 Z"/></g>
<g><path style="opacity:1" fill="#1f1c25" d="M 1184.5,1125.5 C 1171.48,1132.34 1158.15,1138.68 1144.5,1144.5C 1157.02,1136.58 1170.35,1130.24 1184.5,1125.5 Z"/></g>
<g><path style="opacity:1" fill="#1d1923" d="M 1135.5,1148.5 C 1132.25,1150.96 1128.58,1152.62 1124.5,1153.5C 1127.75,1151.04 1131.42,1149.38 1135.5,1148.5 Z"/></g>
<g><path style="opacity:1" fill="#2d2736" d="M 716.5,1155.5 C 716.262,1157.4 715.262,1158.74 713.5,1159.5C 713.738,1157.6 714.738,1156.26 716.5,1155.5 Z"/></g>
<g><path style="opacity:1" fill="#25232d" d="M 1120.5,1155.5 C 1116.58,1158.29 1112.25,1160.29 1107.5,1161.5C 1111.42,1158.71 1115.75,1156.71 1120.5,1155.5 Z"/></g>
<g><path style="opacity:1" fill="#211b25" d="M 1269.5,1165.5 C 1269.19,1164.26 1268.69,1164.26 1268,1165.5C 1266.03,1169.94 1263.53,1173.94 1260.5,1177.5C 1264.39,1169.4 1268.55,1161.4 1273,1153.5C 1272.74,1157.79 1271.57,1161.79 1269.5,1165.5 Z"/></g>
<g><path style="opacity:1" fill="#1d1c24" d="M 1047.5,1143.5 C 1031.52,1152.12 1015.19,1160.29 998.5,1168C 990.365,1172.07 982.031,1175.57 973.5,1178.5C 997.866,1166.32 1022.53,1154.65 1047.5,1143.5 Z"/></g>
<g><path style="opacity:1" fill="#2b2732" d="M 710.5,1163.5 C 709.92,1165.75 708.587,1167.42 706.5,1168.5C 707.08,1166.25 708.413,1164.58 710.5,1163.5 Z"/></g>
<g><path style="opacity:1" fill="#1c1c22" d="M 1408.5,1160.5 C 1402.53,1166.14 1396.53,1171.81 1390.5,1177.5C 1395.21,1170.45 1401.21,1164.79 1408.5,1160.5 Z"/></g>
<g><path style="opacity:1" fill="#231e28" d="M 1103.5,1163.5 C 1088.48,1171.34 1073.15,1178.68 1057.5,1185.5C 1072.01,1176.58 1087.35,1169.24 1103.5,1163.5 Z"/></g>
<g><path style="opacity:1" fill="#25232c" d="M 1254.5,1188.5 C 1253.92,1191.33 1252.59,1193.66 1250.5,1195.5C 1251.08,1192.67 1252.41,1190.34 1254.5,1188.5 Z"/></g>
<g><path style="opacity:1" fill="#201b27" d="M 1046.5,1190.5 C 1043.25,1192.96 1039.58,1194.62 1035.5,1195.5C 1038.75,1193.04 1042.42,1191.38 1046.5,1190.5 Z"/></g>
<g><path style="opacity:1" fill="#241f2e" d="M 689.5,1191.5 C 687.889,1195.05 685.556,1198.05 682.5,1200.5C 684.111,1196.95 686.444,1193.95 689.5,1191.5 Z"/></g>
<g><path style="opacity:1" fill="#1d1d23" d="M 967.5,1181.5 C 944.042,1193.89 920.042,1205.23 895.5,1215.5C 919.178,1203.6 943.178,1192.27 967.5,1181.5 Z"/></g>
<g><path style="opacity:1" fill="#22212a" d="M 1027.5,1199.5 C 1024.91,1201.62 1021.91,1202.96 1018.5,1203.5C 1021.09,1201.38 1024.09,1200.04 1027.5,1199.5 Z"/></g>
<g><path style="opacity:1" fill="#2b2835" d="M 682.5,1200.5 C 680.262,1205.07 677.262,1209.07 673.5,1212.5C 675.738,1207.93 678.738,1203.93 682.5,1200.5 Z"/></g>
<g><path style="opacity:1" fill="#26242e" d="M 1016.5,1204.5 C 1004.38,1210.73 992.047,1216.73 979.5,1222.5C 978.893,1222.38 978.56,1222.04 978.5,1221.5C 990.937,1215.28 1003.6,1209.61 1016.5,1204.5 Z"/></g>
<g><path style="opacity:1" fill="#272531" d="M 673.5,1212.5 C 671.6,1216.73 668.933,1220.4 665.5,1223.5C 667.4,1219.27 670.067,1215.6 673.5,1212.5 Z"/></g>
<g><path style="opacity:1" fill="#24252c" d="M 1239.5,1215.5 C 1238.92,1218.33 1237.59,1220.66 1235.5,1222.5C 1236.08,1219.67 1237.41,1217.34 1239.5,1215.5 Z"/></g>
<g><path style="opacity:1" fill="#1e1b23" d="M 893.5,1216.5 C 888.919,1219.62 883.919,1221.96 878.5,1223.5C 883.081,1220.38 888.081,1218.04 893.5,1216.5 Z"/></g>
<g><path style="opacity:1" fill="#24202b" d="M 1251.5,1226.5 C 1251.59,1229.15 1250.92,1231.49 1249.5,1233.5C 1249.41,1230.85 1250.08,1228.51 1251.5,1226.5 Z"/></g>
<g><path style="opacity:1" fill="#1f1b25" d="M 967.5,1227.5 C 962.919,1230.62 957.919,1232.96 952.5,1234.5C 957.081,1231.38 962.081,1229.04 967.5,1227.5 Z"/></g>
<g><path style="opacity:1" fill="#242029" d="M 1249.5,1233.5 C 1249.59,1236.15 1248.92,1238.49 1247.5,1240.5C 1247.41,1237.85 1248.08,1235.51 1249.5,1233.5 Z"/></g>
<g><path style="opacity:1" fill="#27232c" d="M 946.5,1237.5 C 943.249,1239.96 939.582,1241.62 935.5,1242.5C 938.751,1240.04 942.418,1238.38 946.5,1237.5 Z"/></g>
<g><path style="opacity:1" fill="#221e27" d="M 1234.5,1224.5 C 1231.1,1233.65 1226.43,1241.98 1220.5,1249.5C 1224.41,1240.67 1229.08,1232.34 1234.5,1224.5 Z"/></g>
<g><path style="opacity:1" fill="#221f2a" d="M 1247.5,1240.5 C 1247.59,1243.15 1246.92,1245.49 1245.5,1247.5C 1245.41,1244.85 1246.08,1242.51 1247.5,1240.5 Z"/></g>
<g><path style="opacity:1" fill="#1d1c22" d="M 1359.5,1228.5 C 1354.96,1238.03 1349.62,1247.03 1343.5,1255.5C 1348.08,1246 1353.41,1237 1359.5,1228.5 Z"/></g>
<g><path style="opacity:1" fill="#1f1d25" d="M 870.5,1227.5 C 854.525,1236.12 838.191,1244.29 821.5,1252C 817.578,1253.8 813.578,1255.3 809.5,1256.5C 829.411,1246.05 849.745,1236.38 870.5,1227.5 Z"/></g>
<g><path style="opacity:1" fill="#212029" d="M 1245.5,1247.5 C 1245.28,1251.16 1244.28,1254.5 1242.5,1257.5C 1242.72,1253.84 1243.72,1250.5 1245.5,1247.5 Z"/></g>
<g><path style="opacity:1" fill="#29262f" d="M 935.5,1242.5 C 918.265,1251.62 900.598,1259.95 882.5,1267.5C 899.473,1257.85 917.14,1249.52 935.5,1242.5 Z"/></g>
<g><path style="opacity:1" fill="#221e2c" d="M 650.5,1243.5 C 645.212,1251.45 639.545,1259.12 633.5,1266.5C 638.017,1257.98 643.683,1250.32 650.5,1243.5 Z"/></g>
<g><path style="opacity:1" fill="#221f25" d="M 809.5,1256.5 C 802.923,1260.62 795.923,1263.95 788.5,1266.5C 795.077,1262.38 802.077,1259.05 809.5,1256.5 Z"/></g>
<g><path style="opacity:1" fill="#1d1a23" d="M 882.5,1267.5 C 877.919,1270.62 872.919,1272.96 867.5,1274.5C 872.081,1271.38 877.081,1269.04 882.5,1267.5 Z"/></g>
<g><path style="opacity:1" fill="#1e1c24" d="M 788.5,1266.5 C 766.166,1278.83 743.166,1289.83 719.5,1299.5C 742.046,1287.73 765.046,1276.73 788.5,1266.5 Z"/></g>
<g><path style="opacity:1" fill="#25242a" d="M 1207.5,1273.5 C 1201.36,1286.46 1194.69,1299.12 1187.5,1311.5C 1186.96,1311.44 1186.62,1311.11 1186.5,1310.5C 1193.27,1297.94 1200.27,1285.61 1207.5,1273.5 Z"/></g>
<g><path style="opacity:1" fill="#25252b" d="M 1328.5,1280.5 C 1326.58,1285.34 1323.92,1289.68 1320.5,1293.5C 1322.42,1288.66 1325.08,1284.32 1328.5,1280.5 Z"/></g>
<g><path style="opacity:1" fill="#211d29" d="M 612.5,1294.5 C 608.984,1300.2 604.984,1305.53 600.5,1310.5C 603.529,1304.44 607.529,1299.11 612.5,1294.5 Z"/></g>
<g><path style="opacity:1" fill="#23212a" d="M 852.5,1281.5 C 833.224,1291.64 813.558,1300.97 793.5,1309.5C 812.552,1299.03 832.218,1289.7 852.5,1281.5 Z"/></g>
<g><path style="opacity:1" fill="#1d1e24" d="M 1069.5,1297.5 C 1068.33,1296.19 1066.83,1295.52 1065,1295.5C 1034.85,1296.83 1004.68,1297.83 974.5,1298.5C 977.305,1297.68 980.305,1297.18 983.5,1297C 1011.85,1296.12 1040.18,1295.45 1068.5,1295C 1069.25,1295.67 1069.59,1296.5 1069.5,1297.5 Z"/></g>
<g><path style="opacity:1" fill="#201e24" d="M 719.5,1299.5 C 714.254,1302.96 708.587,1305.62 702.5,1307.5C 707.746,1304.04 713.413,1301.38 719.5,1299.5 Z"/></g>
<g><path style="opacity:1" fill="#191a23" d="M 1080.5,1310.5 C 1087.57,1317.24 1093.91,1324.57 1099.5,1332.5C 1096.54,1330.04 1093.7,1327.37 1091,1324.5C 1086.87,1320.22 1083.37,1315.55 1080.5,1310.5 Z"/></g>
<g><path style="opacity:1" fill="#24212b" d="M 774.5,1318.5 C 770.584,1321.29 766.251,1323.29 761.5,1324.5C 765.416,1321.71 769.749,1319.71 774.5,1318.5 Z"/></g>
<g><path style="opacity:1" fill="#2f2a3a" d="M 594.5,1318.5 C 594.262,1320.4 593.262,1321.74 591.5,1322.5C 591.738,1320.6 592.738,1319.26 594.5,1318.5 Z"/></g>
<g><path style="opacity:1" fill="#312c3b" d="M 591.5,1322.5 C 591.573,1324.03 590.906,1325.03 589.5,1325.5C 589.427,1323.97 590.094,1322.97 591.5,1322.5 Z"/></g>
<g><path style="opacity:1" fill="#1d1d25" d="M 696.5,1310.5 C 682.16,1318.84 667.16,1325.84 651.5,1331.5C 666.081,1323.71 681.081,1316.71 696.5,1310.5 Z"/></g>
<g><path style="opacity:1" fill="#202127" d="M 962.5,1315.5 C 958.247,1322.27 953.747,1328.93 949,1335.5C 946.715,1338.43 944.215,1341.1 941.5,1343.5C 947.738,1333.6 954.738,1324.26 962.5,1315.5 Z"/></g>
<g><path style="opacity:1" fill="#2b2935" d="M 589.5,1325.5 C 587.984,1328.53 585.984,1331.2 583.5,1333.5C 584.529,1330.11 586.529,1327.44 589.5,1325.5 Z"/></g>
<g><path style="opacity:1" fill="#211f2a" d="M 761.5,1324.5 C 746.834,1332.16 731.834,1339.33 716.5,1346C 714.638,1347.37 712.972,1348.87 711.5,1350.5C 711.848,1347.98 713.181,1346.15 715.5,1345C 730.748,1337.87 746.081,1331.04 761.5,1324.5 Z"/></g>
<g><path style="opacity:1" fill="#1a1921" d="M 1303.5,1329.5 C 1308.19,1334.87 1311.85,1340.87 1314.5,1347.5C 1310.33,1341.84 1306.67,1335.84 1303.5,1329.5 Z"/></g>
<g><path style="opacity:1" fill="#18171f" d="M 1179.5,1324.5 C 1184.68,1331.52 1189.34,1338.86 1193.5,1346.5C 1188.53,1340.01 1183.7,1333.35 1179,1326.5C 1178.31,1325.56 1178.47,1324.9 1179.5,1324.5 Z"/></g>
<g><path style="opacity:1" fill="#201f28" d="M 649.5,1332.5 C 644.254,1335.96 638.587,1338.62 632.5,1340.5C 637.746,1337.04 643.413,1334.38 649.5,1332.5 Z"/></g>
<g><path style="opacity:1" fill="#1b1a24" d="M 1113.5,1348.5 C 1123.24,1358.57 1132.24,1369.24 1140.5,1380.5C 1133.87,1373.7 1127.37,1366.7 1121,1359.5C 1117.86,1356.21 1115.36,1352.54 1113.5,1348.5 Z"/></g>
<g><path style="opacity:1" fill="#1b1b24" d="M 1240.5,1350.5 C 1246.98,1358.13 1252.98,1366.13 1258.5,1374.5C 1251.53,1367.22 1245.53,1359.22 1240.5,1350.5 Z"/></g>
<g><path style="opacity:1" fill="#1f1c23" d="M 931.5,1356.5 C 929.889,1360.05 927.556,1363.05 924.5,1365.5C 926.111,1361.95 928.444,1358.95 931.5,1356.5 Z"/></g>
<g><path style="opacity:1" fill="#24202d" d="M 569.5,1352.5 C 563.5,1361.17 557.5,1369.83 551.5,1378.5C 550.903,1378.26 550.57,1377.76 550.5,1377C 555.918,1368.09 562.252,1359.92 569.5,1352.5 Z"/></g>
<g><path style="opacity:1" fill="#1d1d23" d="M 609.5,1351.5 C 597.438,1358.53 584.771,1364.53 571.5,1369.5C 583.866,1362.98 596.533,1356.98 609.5,1351.5 Z"/></g>
<g><path style="opacity:1" fill="#25222b" d="M 567.5,1371.5 C 562.919,1374.62 557.919,1376.96 552.5,1378.5C 557.081,1375.38 562.081,1373.04 567.5,1371.5 Z"/></g>
<g><path style="opacity:1" fill="#201f26" d="M 924.5,1365.5 C 918.921,1374.08 912.588,1382.08 905.5,1389.5C 911.079,1380.92 917.412,1372.92 924.5,1365.5 Z"/></g>
<g><path style="opacity:1" fill="#1e1928" d="M 692.5,1375.5 C 689.547,1380.45 686.214,1385.12 682.5,1389.5C 684.677,1383.99 688.01,1379.33 692.5,1375.5 Z"/></g>
<g><path style="opacity:1" fill="#1b1b25" d="M 1149.5,1390.5 C 1159.87,1402.2 1169.87,1414.2 1179.5,1426.5C 1168.38,1415.38 1158.38,1403.38 1149.5,1390.5 Z"/></g>
<g><path style="opacity:1" fill="#1d1e25" d="M 1272.5,1392.5 C 1278.98,1400.13 1284.98,1408.13 1290.5,1416.5C 1283.35,1409.35 1277.35,1401.35 1272.5,1392.5 Z"/></g>
<g><path style="opacity:1" fill="#222128" d="M 891.5,1406.5 C 890.92,1408.75 889.587,1410.42 887.5,1411.5C 888.08,1409.25 889.413,1407.58 891.5,1406.5 Z"/></g>
<g><path style="opacity:1" fill="#1e1e24" d="M 1351.5,1405.5 C 1354.58,1408.65 1356.91,1412.32 1358.5,1416.5C 1355.42,1413.35 1353.09,1409.68 1351.5,1405.5 Z"/></g>
<g><path style="opacity:1" fill="#212128" d="M 886.5,1412.5 C 884.906,1415.76 882.573,1418.43 879.5,1420.5C 881.094,1417.24 883.427,1414.57 886.5,1412.5 Z"/></g>
<g><path style="opacity:1" fill="#1e1d23" d="M 1232.5,1403.5 C 1238.33,1411.15 1243.66,1419.15 1248.5,1427.5C 1242.49,1420 1236.82,1412.17 1231.5,1404C 1231.73,1403.6 1232.06,1403.43 1232.5,1403.5 Z"/></g>
<g><path style="opacity:1" fill="#181820" d="M 1290.5,1416.5 C 1293.56,1418.95 1295.89,1421.95 1297.5,1425.5C 1294.44,1423.05 1292.11,1420.05 1290.5,1416.5 Z"/></g>
<g><path style="opacity:1" fill="#252230" d="M 648.5,1436.5 C 646.6,1440.73 643.933,1444.4 640.5,1447.5C 642.4,1443.27 645.067,1439.6 648.5,1436.5 Z"/></g>
<g><path style="opacity:1" fill="#1e1c27" d="M 1186.5,1434.5 C 1195.29,1444.06 1203.62,1454.06 1211.5,1464.5C 1204.7,1467.43 1197.7,1469.77 1190.5,1471.5C 1196.53,1468.49 1202.86,1465.99 1209.5,1464C 1201.59,1454.27 1193.93,1444.44 1186.5,1434.5 Z"/></g>
<g><path style="opacity:1" fill="#2a2635" d="M 640.5,1447.5 C 639.567,1450.37 637.9,1452.7 635.5,1454.5C 636.433,1451.63 638.1,1449.3 640.5,1447.5 Z"/></g>
<g><path style="opacity:1" fill="#1f1e27" d="M 1314.5,1448.5 C 1318.35,1452.19 1321.68,1456.36 1324.5,1461C 1313.44,1461.34 1305.77,1460.84 1301.5,1459.5C 1308.55,1459.49 1315.55,1459.66 1322.5,1460C 1319.2,1456.54 1316.53,1452.71 1314.5,1448.5 Z"/></g>
<g><path style="opacity:1" fill="#1c1920" d="M 1261.5,1446.5 C 1264.64,1449.81 1267.64,1453.31 1270.5,1457C 1277.81,1457.94 1285.14,1458.44 1292.5,1458.5C 1285.35,1459.66 1278.01,1459.82 1270.5,1459C 1266.87,1455.22 1263.87,1451.05 1261.5,1446.5 Z"/></g>
<g><path style="opacity:1" fill="#292532" d="M 635.5,1454.5 C 634.567,1457.37 632.9,1459.7 630.5,1461.5C 631.433,1458.63 633.1,1456.3 635.5,1454.5 Z"/></g>
<g><path style="opacity:1" fill="#232329" d="M 844.5,1454.5 C 843.089,1456.91 841.089,1458.58 838.5,1459.5C 839.911,1457.09 841.911,1455.42 844.5,1454.5 Z"/></g>
<g><path style="opacity:1" fill="#191920" d="M 1382.5,1452.5 C 1390.7,1457.79 1399.7,1461.12 1409.5,1462.5C 1409.08,1463.12 1408.42,1463.46 1407.5,1463.5C 1401.75,1462.31 1396.09,1460.81 1390.5,1459C 1387.58,1457.05 1384.91,1454.89 1382.5,1452.5 Z"/></g>
<g><path style="opacity:1" fill="#201e24" d="M 837.5,1460.5 C 836.375,1462.13 835.041,1463.63 833.5,1465C 830.778,1467.36 827.778,1469.19 824.5,1470.5C 828.284,1466.44 832.617,1463.11 837.5,1460.5 Z"/></g>
<g><path style="opacity:1" fill="#201e2a" d="M 613.5,1485.5 C 607.214,1495.12 600.547,1504.45 593.5,1513.5C 599.01,1503.33 605.676,1493.99 613.5,1485.5 Z"/></g>
<g><path style="opacity:1" fill="#222128" d="M 815.5,1477.5 C 803.696,1487.58 790.696,1495.91 776.5,1502.5C 789.322,1493.92 802.322,1485.59 815.5,1477.5 Z"/></g>
<g><path style="opacity:1" fill="#1a1a22" d="M 1139.5,1496.5 C 1134.52,1500.66 1129.19,1504.32 1123.5,1507.5C 1128.13,1502.85 1133.46,1499.18 1139.5,1496.5 Z"/></g>
<g><path style="opacity:1" fill="#24232a" d="M 761.5,1510.5 C 750.282,1517.94 738.282,1524.11 725.5,1529C 715.053,1533.54 704.387,1537.37 693.5,1540.5C 716.505,1531.49 739.172,1521.49 761.5,1510.5 Z"/></g>
<g><path style="opacity:1" fill="#23222a" d="M 690.5,1541.5 C 682.915,1545.14 674.915,1547.81 666.5,1549.5C 674.216,1546.26 682.216,1543.59 690.5,1541.5 Z"/></g>
<g><path style="opacity:1" fill="#232230" d="M 556.5,1564.5 C 554.6,1568.73 551.933,1572.4 548.5,1575.5C 550.4,1571.27 553.067,1567.6 556.5,1564.5 Z"/></g>
<g><path style="opacity:1" fill="#212227" d="M 649.5,1554.5 C 617.358,1564.74 584.525,1572.74 551,1578.5C 549.93,1578.47 549.097,1578.14 548.5,1577.5C 582.429,1570.98 616.096,1563.31 649.5,1554.5 Z"/></g>
</svg>
